<svg preserveAspectRatio="none" overflow="visible" style="display: block;" width="16" height="16" viewBox="0 0 16 16" fill="none" xmlns="http://www.w3.org/2000/svg">
<g id="Bold / rating-star">
<path id="Icons / Bold / rating-star" d="M13.1388 6.54531C13.0415 6.28396 12.7924 6.11031 12.5135 6.10949H9.80646C9.71205 6.10955 9.6279 6.05 9.59655 5.96095L8.62484 3.20678C8.52737 2.9461 8.27831 2.77333 8 2.77333C7.7217 2.77333 7.47263 2.9461 7.37517 3.20678L7.37294 3.2139L6.40345 5.96095C6.37216 6.04985 6.28823 6.10937 6.19398 6.10949H3.48607C3.20529 6.10927 2.95444 6.2849 2.85857 6.54881C2.76271 6.81271 2.84235 7.1084 3.0578 7.28844L5.36324 9.20075C5.43383 9.25932 5.4612 9.35523 5.43217 9.44223L4.46357 12.3467C4.37171 12.6223 4.46873 12.9256 4.70345 13.0967C4.93817 13.2678 5.25663 13.2674 5.49088 13.0956L7.86836 11.3523C7.9466 11.295 8.05296 11.295 8.13119 11.3523L10.5078 13.0952C10.7419 13.2675 11.0608 13.2684 11.2958 13.0973C11.5309 12.9262 11.628 12.6225 11.536 12.3467L10.5674 9.44046C10.5384 9.35345 10.5657 9.25755 10.6363 9.19897L12.9462 7.284C13.1589 7.10246 13.2357 6.80757 13.1388 6.54531Z" fill="#FFC400"/>
<mask id="mask0_0_590" style="mask-type:luminance" maskUnits="userSpaceOnUse" x="2" y="2" width="12" height="12">
<path id="Icons / Bold / rating-star_2" d="M13.1388 6.54531C13.0415 6.28396 12.7924 6.11031 12.5135 6.10949H9.80646C9.71205 6.10955 9.6279 6.05 9.59655 5.96095L8.62484 3.20678C8.52737 2.9461 8.27831 2.77333 8 2.77333C7.7217 2.77333 7.47263 2.9461 7.37517 3.20678L7.37294 3.2139L6.40345 5.96095C6.37216 6.04985 6.28823 6.10937 6.19398 6.10949H3.48607C3.20529 6.10927 2.95444 6.2849 2.85857 6.54881C2.76271 6.81271 2.84235 7.1084 3.0578 7.28844L5.36324 9.20075C5.43383 9.25932 5.4612 9.35523 5.43217 9.44223L4.46357 12.3467C4.37171 12.6223 4.46873 12.9256 4.70345 13.0967C4.93817 13.2678 5.25663 13.2674 5.49088 13.0956L7.86836 11.3523C7.9466 11.295 8.05296 11.295 8.13119 11.3523L10.5078 13.0952C10.7419 13.2675 11.0608 13.2684 11.2958 13.0973C11.5309 12.9262 11.628 12.6225 11.536 12.3467L10.5674 9.44046C10.5384 9.35345 10.5657 9.25755 10.6363 9.19897L12.9462 7.284C13.1589 7.10246 13.2357 6.80757 13.1388 6.54531Z" fill="white"/>
</mask>
<g mask="url(#mask0_0_590)">
</g>
</g>
</svg>
